<?xml version="1.0" standalone="no"?>
<!DOCTYPE svg PUBLIC "-//W3C//DTD SVG 20010904//EN"
 "http://www.w3.org/TR/2001/REC-SVG-20010904/DTD/svg10.dtd">
<svg version="1.0" xmlns="http://www.w3.org/2000/svg"
 width="700.000000pt" height="700.000000pt" viewBox="0 0 700.000000 700.000000"
 preserveAspectRatio="xMidYMid meet">
<metadata>
Created by potrace 1.14, written by Peter Selinger 2001-2017
</metadata>
<g transform="translate(0.000000,700.000000) scale(0.100000,-0.100000)"
fill="#000000" stroke="none">
<path d="M3378 6415 c-2 -1 -48 -5 -103 -9 -55 -3 -118 -9 -140 -12 -91 -12
-224 -36 -285 -50 -36 -9 -72 -17 -81 -19 -51 -11 -240 -73 -339 -112 -371
-146 -699 -361 -985 -648 -184 -183 -284 -309 -441 -555 -22 -35 -114 -200
-114 -205 0 -2 -20 -45 -44 -96 -107 -229 -205 -563 -232 -794 -4 -27 -8 -52
-9 -55 -8 -13 -19 -227 -19 -360 1 -227 11 -344 50 -545 90 -473 289 -903 593
-1285 70 -88 280 -306 361 -375 250 -214 542 -390 842 -509 125 -49 360 -121
430 -131 23 -4 45 -8 48 -10 16 -10 239 -43 350 -52 152 -12 542 -5 592 12 7
2 36 6 63 9 305 33 730 179 1035 354 424 245 804 618 1050 1031 211 356 333
704 394 1131 26 179 26 538 1 730 -13 91 -37 227 -50 280 -8 30 -16 66 -19 80
-11 54 -48 176 -87 283 -255 695 -777 1279 -1438 1607 -95 47 -282 128 -311
135 -8 2 -49 15 -90 29 -272 91 -547 136 -862 141 -87 1 -159 1 -160 0z m996
-1744 c-1 -157 -2 -288 -3 -291 0 -3 -262 -5 -581 -5 l-580 0 0 -292 0 -293
437 -2 437 -3 0 -278 c1 -154 -2 -283 -5 -288 -3 -6 -176 -10 -437 -9 l-432 0
0 -583 0 -584 -292 1 -293 1 0 1450 c-1 798 0 1453 2 1456 1 4 395 7 875 6
l873 0 -1 -286z"/>
</g>
</svg>
